<svg xmlns="http://www.w3.org/2000/svg" xmlns:xlink="http://www.w3.org/1999/xlink" version="1.1" x="0px" y="0px" viewBox="0 0 100 125" enable-background="new 0 0 100 100" xml:space="preserve"><g><rect x="-192" width="185" height="99"/><rect y="-36" width="100" height="30"/><text transform="matrix(1 0 0 1 66 -19.5)" fill="#000000" font-family="'Helvetica'" font-size="2.4">http://thenounproject.com</text><text transform="matrix(1 0 0 1 7.166 -24.5)"><tspan x="0" y="0" fill="#000000" font-family="'Helvetica-Bold'" font-size="6.1578">The Noun Project</tspan><tspan x="1.12" y="4.8" fill="#000000" font-family="'Helvetica-Bold'" font-size="4">Icon Template</tspan></text><text transform="matrix(1 0 0 1 -178.5 10.5)" fill="#000000" font-family="'Helvetica-Bold'" font-size="6.1578">Reminders</text><line fill="#000000" stroke="#FFFFFF" stroke-miterlimit="10" x1="8" y1="-14.5" x2="18" y2="-14.5"/><line fill="#000000" stroke="#FFFFFF" stroke-miterlimit="10" x1="-179" y1="16.5" x2="-162" y2="16.5"/><g><g><g><rect x="-170.802" y="31.318" fill="#000000" width="8.721" height="8.642"/><path fill="#000000" d="M-164.455,42.312h4.747v-4.703h-4.747V42.312z M-159.266,42.749h-5.63V37.17h5.63V42.749      L-159.266,42.749z M-166.221,44.062h8.279v-8.203h-8.279V44.062L-166.221,44.062z M-157.5,44.5h-9.163v-9.079h9.163V44.5      L-157.5,44.5z"/><polygon fill="#000000" points="-166.149,44.133 -166.292,43.991 -158.013,35.787 -157.871,35.929     "/></g></g></g><rect x="-179" y="58" fill="none" width="35" height="32.5"/><text transform="matrix(1 0 0 1 -179 60.1299)"><tspan x="0" y="0" fill="#000000" font-family="'Helvetica-Bold'" font-size="3">Strokes</tspan><tspan x="0" y="5" fill="#000000" font-family="'Helvetica'" font-size="2.4">Try to keep strokes at 4px</tspan><tspan x="0" y="10" fill="#000000" font-family="'Helvetica'" font-size="2.4">Minimum stroke weight is 2px</tspan><tspan x="0" y="14.5" fill="#000000" font-family="'Helvetica'" font-size="2.4">For thicker strokes use even </tspan><tspan x="0" y="17.5" fill="#000000" font-family="'Helvetica'" font-size="2.4">numbers: 6px, 8px etc.</tspan><tspan x="0" y="22" fill="#000000" font-family="'Helvetica-Bold'" font-size="2.4">Remember to expand strokes </tspan><tspan x="0" y="25" fill="#000000" font-family="'Helvetica-Bold'" font-size="2.4">before saving as an SVG </tspan></text><rect x="-136.5" y="58" fill="none" width="35" height="32.5"/><text transform="matrix(1 0 0 1 -136.5 60.1299)"><tspan x="0" y="0" fill="#000000" font-family="'Helvetica-Bold'" font-size="3">Size</tspan><tspan x="0" y="5" fill="#000000" font-family="'Helvetica'" font-size="2.4">Cannot be wider or taller than </tspan><tspan x="0" y="8.5" fill="#000000" font-family="'Helvetica'" font-size="2.4">100px (artboard size)</tspan><tspan x="0" y="13.5" fill="#000000" font-family="'Helvetica'" font-size="2.4">Scale your icon to fill as much of </tspan><tspan x="0" y="16.5" fill="#000000" font-family="'Helvetica'" font-size="2.4">the artboard as possible</tspan></text><rect x="-94" y="58" fill="none" width="35" height="32.5"/><text transform="matrix(1 0 0 1 -94 60.1299)"><tspan x="0" y="0" fill="#000000" font-family="'Helvetica-Bold'" font-size="3">Ungroup</tspan><tspan x="0" y="5" fill="#000000" font-family="'Helvetica'" font-size="2.4">If your design has more than one </tspan><tspan x="0" y="8" fill="#000000" font-family="'Helvetica'" font-size="2.4">shape, make sure to ungroup</tspan></text><rect x="-50" y="58" fill="none" width="35" height="32.5"/><text transform="matrix(1 0 0 1 -50 60.1299)"><tspan x="0" y="0" fill="#000000" font-family="'Helvetica-Bold'" font-size="3">Save as</tspan><tspan x="0" y="5" fill="#000000" font-family="'Helvetica'" font-size="2.4">Save as .SVG and make sure “Use </tspan><tspan x="0" y="8" fill="#000000" font-family="'Helvetica'" font-size="2.4">Artboards” is checked</tspan></text><text transform="matrix(1.0074 0 0 1 -125.542 30.5933)" fill="#000000" font-family="'Helvetica'" font-size="2.5731">100px</text><text transform="matrix(1.0074 0 0 1 -41 39)" fill="#000000" font-family="'Helvetica-Bold'" font-size="5.1462">.SVG</text><rect x="-126.514" y="34.815" fill="#000000" width="10.261" height="10.185"/><rect x="-126.477" y="31.766" fill="#000000" width="0.522" height="2.337"/><rect x="-116.813" y="31.766" fill="#000000" width="0.523" height="2.337"/><rect x="-127" y="32.337" fill="#000000" width="11.233" height="0.572"/><g><rect x="-83.805" y="33.844" fill="#000000" width="10.305" height="10.156"/><rect x="-76.809" y="28.707" fill="#000000" width="3.308" height="3.261"/></g><rect x="-178.5" y="22.5" fill="#000000" stroke="#FFFFFF" stroke-miterlimit="10" width="30" height="30"/><rect x="-136.5" y="22.5" fill="#000000" stroke="#FFFFFF" stroke-miterlimit="10" width="30" height="30"/><rect x="-93.5" y="22.5" fill="#000000" stroke="#FFFFFF" stroke-miterlimit="10" width="30" height="30"/><rect x="-49.5" y="22.5" fill="#000000" stroke="#FFFFFF" stroke-miterlimit="10" width="30" height="30"/></g><g><path fill-rule="evenodd" clip-rule="evenodd" d="M50,0C22.386,0,0,22.385,0,50c0,27.613,22.386,50,50,50s50-22.387,50-50   C100,22.385,77.614,0,50,0z M83.375,82.065l-1.948-1.947l-1.309,1.309l1.947,1.948c-2.463,2.367-5.179,4.473-8.118,6.253   l-1.387-2.402l-1.604,0.926l1.385,2.399c-2.971,1.641-6.144,2.957-9.467,3.917l-0.717-2.673l-1.789,0.479l0.718,2.677   c-2.56,0.628-5.201,1.04-7.907,1.224L50,89.814l-3.18,6.36c-2.706-0.184-5.348-0.596-7.907-1.224l0.717-2.677l-1.789-0.479   l-0.716,2.673c-3.324-0.96-6.497-2.276-9.468-3.917l1.385-2.399l-1.604-0.926l-1.386,2.402c-2.938-1.78-5.655-3.886-8.118-6.253   l1.948-1.948l-1.31-1.309l-1.948,1.947c-2.367-2.463-4.473-5.18-6.252-8.118l2.402-1.387l-0.926-1.604l-2.4,1.386   c-1.64-2.972-2.957-6.144-3.917-9.469l2.672-0.716l-0.479-1.789l-2.675,0.717c-0.628-2.559-1.041-5.199-1.225-7.905l6.36-3.18   l-6.361-3.18c0.184-2.706,0.597-5.348,1.226-7.907l2.675,0.717l0.479-1.789l-2.672-0.716c0.96-3.325,2.277-6.498,3.918-9.469   l2.399,1.385l0.926-1.604l-2.402-1.387c1.779-2.938,3.884-5.654,6.251-8.117l1.949,1.949l1.31-1.31l-1.949-1.949   c2.463-2.367,5.18-4.472,8.119-6.251l1.386,2.402l1.604-0.926l-1.385-2.4c2.971-1.64,6.144-2.957,9.468-3.918l0.716,2.672   l1.789-0.479l-0.716-2.675c2.558-0.628,5.2-1.041,7.906-1.225l3.18,6.36l3.18-6.36c2.706,0.184,5.348,0.596,7.906,1.225   l-0.717,2.675l1.789,0.479l0.717-2.672c3.323,0.961,6.496,2.278,9.467,3.918l-1.385,2.4l1.604,0.926l1.387-2.402   c2.939,1.779,5.656,3.884,8.119,6.251l-1.948,1.949l1.309,1.31l1.949-1.949c2.366,2.463,4.472,5.179,6.251,8.118l-2.401,1.386   l0.926,1.604l2.398-1.385c1.642,2.971,2.958,6.144,3.919,9.469l-2.673,0.716l0.479,1.789l2.676-0.717   c0.628,2.559,1.04,5.201,1.224,7.907L89.814,50l6.36,3.18c-0.184,2.706-0.596,5.347-1.224,7.905l-2.676-0.717l-0.479,1.789   l2.673,0.716c-0.961,3.325-2.277,6.497-3.918,9.469l-2.399-1.386l-0.926,1.604l2.402,1.387   C87.848,76.886,85.743,79.603,83.375,82.065z"/><path fill-rule="evenodd" clip-rule="evenodd" d="M57.092,38.082c-1.154-0.688-2.412-1.218-3.752-1.549L50,22.222l-3.339,14.311   c-2.102,0.52-4.019,1.508-5.622,2.864l-4.928-3.286l3.286,4.928c-1.356,1.603-2.345,3.519-2.865,5.622L22.222,50l14.31,3.339   c0.331,1.34,0.862,2.599,1.55,3.752l-15.86,20.687l20.687-15.859c1.154,0.688,2.412,1.219,3.751,1.55L50,77.777l3.34-14.31   c2.102-0.521,4.018-1.509,5.62-2.865l4.929,3.286l-3.285-4.929c1.355-1.603,2.344-3.519,2.863-5.621L77.777,50l-14.311-3.339   c-0.33-1.34-0.861-2.599-1.549-3.752l15.859-20.686L57.092,38.082z M39.301,55.5c-0.85-1.649-1.338-3.516-1.338-5.5   c0-6.648,5.389-12.037,12.037-12.037c1.984,0,3.85,0.488,5.5,1.338L50,43.519c-3.58,0-6.481,2.901-6.481,6.481L39.301,55.5z    M54.629,50c0,2.557-2.072,4.63-4.629,4.63c-2.557,0-4.629-2.073-4.629-4.63c0-2.557,2.072-4.629,4.629-4.629   C52.557,45.371,54.629,47.443,54.629,50z M62.037,50c0,6.647-5.389,12.037-12.037,12.037c-1.984,0-3.85-0.488-5.5-1.338l5.5-4.218   c3.579,0,6.481-2.902,6.481-6.481l4.218-5.5C61.549,46.15,62.037,48.016,62.037,50z"/><circle fill-rule="evenodd" clip-rule="evenodd" cx="50" cy="50" r="2.778"/></g><text x="0" y="115" fill="#000000" font-size="5px" font-weight="bold" font-family="'Helvetica Neue', Helvetica, Arial-Unicode, Arial, Sans-serif">Created by Stanislav Levin</text><text x="0" y="120" fill="#000000" font-size="5px" font-weight="bold" font-family="'Helvetica Neue', Helvetica, Arial-Unicode, Arial, Sans-serif">from the Noun Project</text></svg>